<svg id="Capa_1" enable-background="new 0 0 510 510" height="512" viewBox="0 0 510 510" width="512" xmlns="http://www.w3.org/2000/svg" xmlns:xlink="http://www.w3.org/1999/xlink"><linearGradient id="lg1"><stop offset="0" stop-color="#a57c52"/><stop offset=".1339" stop-color="#a26c4a"/><stop offset=".5155" stop-color="#994336"/><stop offset=".8174" stop-color="#942a2a"/><stop offset="1" stop-color="#922125"/></linearGradient><linearGradient id="SVGID_1_" gradientTransform="matrix(.707 .707 -.707 .707 -559.902 -426.607)" gradientUnits="userSpaceOnUse" x1="939.167" x2="993.173" xlink:href="#lg1" y1="-228.9" y2="-228.9"/><linearGradient id="lg2"><stop offset="0" stop-color="#bada00"/><stop offset=".3706" stop-color="#b8d800"/><stop offset=".5625" stop-color="#b2d000"/><stop offset=".7133" stop-color="#a6c300"/><stop offset=".8428" stop-color="#97b000"/><stop offset=".9575" stop-color="#829700"/><stop offset="1" stop-color="#798c00"/></linearGradient><radialGradient id="SVGID_2_" cx="857.371" cy="-245.141" gradientTransform="matrix(.707 .707 -.707 .707 -535.746 -375.575)" gradientUnits="userSpaceOnUse" r="101.011" xlink:href="#lg2"/><linearGradient id="lg3"><stop offset="0" stop-color="#798c00" stop-opacity="0"/><stop offset=".6542" stop-color="#556100" stop-opacity=".654"/><stop offset="1" stop-color="#464f00"/></linearGradient><linearGradient id="SVGID_3_" gradientUnits="userSpaceOnUse" x1="275.208" x2="177.497" xlink:href="#lg3" y1="173.015" y2="75.304"/><linearGradient id="lg4"><stop offset="0" stop-color="#f8f6fb"/><stop offset=".5047" stop-color="#f7f4fb"/><stop offset=".7657" stop-color="#f5ecfb"/><stop offset=".9705" stop-color="#f0dffb"/><stop offset="1" stop-color="#efdcfb"/></linearGradient><radialGradient id="SVGID_4_" cx="838.135" cy="-161.376" gradientTransform="matrix(.707 .707 -.707 .707 -535.746 -375.575)" gradientUnits="userSpaceOnUse" r="101.011" xlink:href="#lg4"/><linearGradient id="lg5"><stop offset="0" stop-color="#efdcfb" stop-opacity="0"/><stop offset=".0287" stop-color="#e9d6f7" stop-opacity=".029"/><stop offset=".2203" stop-color="#c5b5de" stop-opacity=".22"/><stop offset=".4138" stop-color="#aa9bcb" stop-opacity=".414"/><stop offset=".6078" stop-color="#9688bd" stop-opacity=".608"/><stop offset=".8028" stop-color="#8a7db5" stop-opacity=".803"/><stop offset="1" stop-color="#8679b2"/></linearGradient><linearGradient id="SVGID_5_" gradientUnits="userSpaceOnUse" x1="213.985" x2="116.273" xlink:href="#lg5" y1="234.239" y2="136.527"/><linearGradient id="lg6"><stop offset="0" stop-color="#faa68e"/><stop offset=".4571" stop-color="#faa48f"/><stop offset=".6937" stop-color="#fb9c92"/><stop offset=".8791" stop-color="#fd8f97"/><stop offset="1" stop-color="#ff819c"/></linearGradient><radialGradient id="SVGID_6_" cx="114.876" cy="168.013" gradientUnits="userSpaceOnUse" r="106.809" xlink:href="#lg6"/><linearGradient id="lg7"><stop offset="0" stop-color="#f82814" stop-opacity="0"/><stop offset="1" stop-color="#c0272d"/></linearGradient><linearGradient id="SVGID_7_" gradientUnits="userSpaceOnUse" x1="130.489" x2="76.324" xlink:href="#lg7" y1="287.924" y2="233.758"/><linearGradient id="SVGID_8_" gradientTransform="matrix(.707 .707 -.707 .707 -559.902 -426.607)" gradientUnits="userSpaceOnUse" x1="939.167" x2="993.173" xlink:href="#lg1" y1="73.654" y2="73.654"/><linearGradient id="SVGID_9_" gradientTransform="matrix(.707 .707 -.707 .707 -559.902 -426.607)" gradientUnits="userSpaceOnUse" x1="1049.002" x2="1103.008" xlink:href="#lg1" y1="-329.538" y2="-329.538"/><radialGradient id="SVGID_10_" cx="966.356" cy="-350.012" gradientTransform="matrix(.707 .707 -.707 .707 -535.746 -375.575)" gradientUnits="userSpaceOnUse" r="101.011" xlink:href="#lg4"/><linearGradient id="SVGID_11_" gradientUnits="userSpaceOnUse" x1="424.036" x2="326.325" xlink:href="#lg5" y1="179.519" y2="81.807"/><radialGradient id="SVGID_12_" cx="940.193" cy="-264.135" gradientTransform="matrix(.707 .707 -.707 .707 -535.746 -375.575)" gradientUnits="userSpaceOnUse" r="101.011" xlink:href="#lg6"/><linearGradient id="SVGID_13_" gradientUnits="userSpaceOnUse" x1="362.812" x2="265.101" xlink:href="#lg7" y1="240.742" y2="143.031"/><radialGradient id="SVGID_14_" cx="950.799" cy="-203.97" gradientTransform="matrix(.707 .707 -.707 .707 -535.746 -375.575)" gradientUnits="userSpaceOnUse" r="135.438" xlink:href="#lg2"/><linearGradient id="SVGID_15_" gradientUnits="userSpaceOnUse" x1="279.317" x2="225.152" xlink:href="#lg3" y1="294.427" y2="240.262"/><linearGradient id="SVGID_16_" gradientTransform="matrix(.707 .707 -.707 .707 -559.902 -426.607)" gradientUnits="userSpaceOnUse" x1="1049.002" x2="1103.008" xlink:href="#lg1" y1="-26.984" y2="-26.984"/><linearGradient id="SVGID_17_" gradientTransform="matrix(.707 .707 -.707 .707 -559.902 -426.607)" gradientUnits="userSpaceOnUse" x1="1160.707" x2="1214.713" xlink:href="#lg1" y1="-250.222" y2="-250.222"/><radialGradient id="SVGID_18_" cx="1087.396" cy="-260.806" gradientTransform="matrix(.707 .707 -.707 .707 -535.746 -375.575)" gradientUnits="userSpaceOnUse" r="101.011" xlink:href="#lg2"/><linearGradient id="SVGID_19_" gradientUnits="userSpaceOnUse" x1="446.938" x2="349.226" xlink:href="#lg3" y1="314.591" y2="216.879"/><radialGradient id="SVGID_20_" cx="1082.303" cy="-202.497" gradientTransform="matrix(.707 .707 -.707 .707 -535.746 -375.575)" gradientUnits="userSpaceOnUse" r="101.011" xlink:href="#lg4"/><linearGradient id="SVGID_21_" gradientUnits="userSpaceOnUse" x1="385.714" x2="288.003" xlink:href="#lg5" y1="375.814" y2="278.103"/><radialGradient id="SVGID_22_" cx="295.606" cy="314.588" gradientUnits="userSpaceOnUse" r="106.809" xlink:href="#lg6"/><linearGradient id="SVGID_23_" gradientUnits="userSpaceOnUse" x1="302.219" x2="248.054" xlink:href="#lg7" y1="429.499" y2="375.334"/><linearGradient id="SVGID_24_" gradientTransform="matrix(.707 .707 -.707 .707 -559.902 -426.607)" gradientUnits="userSpaceOnUse" x1="1160.707" x2="1214.713" xlink:href="#lg1" y1="52.332" y2="52.332"/><g><g><path d="m209.607 143.74c-5.483-5.483-5.483-14.371 0-19.854l104.697-104.697c5.483-5.483 14.371-5.483 19.854 0 5.483 5.483 5.483 14.371 0 19.854l-104.697 104.697c-5.482 5.483-14.371 5.483-19.854 0z" fill="url(#SVGID_1_)"/><g><circle cx="256.913" cy="93.496" fill="url(#SVGID_2_)" r="73.255"/><path d="m298.397 153.863-50.909-50.942c-17.153-17.153-40.696-24.009-62.967-20.592-3.417 22.271 3.438 45.813 20.592 62.967 25.383 25.381 64.747 28.224 93.284 8.567z" fill="url(#SVGID_3_)"/><circle cx="195.689" cy="154.72" fill="url(#SVGID_4_)" r="73.255"/><path d="m237.174 215.086-50.909-50.942c-17.153-17.153-40.696-24.009-62.967-20.592-3.417 22.271 3.438 45.813 20.592 62.967 25.382 25.382 64.746 28.225 93.284 8.567z" fill="url(#SVGID_5_)"/><circle cx="134.466" cy="215.944" fill="url(#SVGID_6_)" r="73.255"/></g><path d="m91.924 241.569-17.017 17.017c2.301 3.206 4.878 6.275 7.759 9.157 19.882 19.882 48.345 25.931 73.464 18.178l-44.352-44.352c-5.482-5.482-14.371-5.482-19.854 0z" fill="url(#SVGID_7_)"/><path d="m4.112 349.236c-5.483-5.483-5.483-14.372 0-19.854l87.812-87.812c5.483-5.483 14.371-5.483 19.854 0 5.483 5.483 5.483 14.371 0 19.854l-87.812 87.812c-5.483 5.482-14.372 5.482-19.854 0z" fill="url(#SVGID_8_)"/></g><g><path d="m358.435 150.243c-5.483-5.483-5.483-14.371 0-19.854l104.697-104.697c5.483-5.483 14.371-5.483 19.854 0 5.483 5.483 5.483 14.371 0 19.854l-104.697 104.697c-5.482 5.483-14.371 5.483-19.854 0z" fill="url(#SVGID_9_)"/><g><circle cx="405.741" cy="100" fill="url(#SVGID_10_)" r="73.255"/><path d="m447.225 160.366-50.909-50.942c-17.153-17.153-40.696-24.009-62.967-20.592-3.417 22.271 3.438 45.813 20.592 62.967 25.382 25.382 64.747 28.224 93.284 8.567z" fill="url(#SVGID_11_)"/><circle cx="344.517" cy="161.223" fill="url(#SVGID_12_)" r="73.255"/><path d="m386.001 221.59-50.909-50.942c-17.153-17.153-40.696-24.009-62.967-20.592-3.417 22.271 3.438 45.813 20.592 62.967 25.383 25.382 64.747 28.224 93.284 8.567z" fill="url(#SVGID_13_)"/><circle cx="283.293" cy="222.447" fill="url(#SVGID_14_)" r="73.255"/></g><path d="m240.752 248.073-17.017 17.017c2.301 3.206 4.878 6.275 7.759 9.157 19.882 19.882 48.345 25.931 73.464 18.178l-44.352-44.352c-5.483-5.483-14.372-5.483-19.854 0z" fill="url(#SVGID_15_)"/><path d="m152.94 355.739c-5.483-5.483-5.483-14.371 0-19.854l87.812-87.812c5.483-5.483 14.371-5.483 19.854 0 5.483 5.483 5.483 14.371 0 19.854l-87.812 87.812c-5.483 5.483-14.372 5.483-19.854 0z" fill="url(#SVGID_16_)"/></g><g><path d="m381.337 285.316c-5.483-5.483-5.483-14.372 0-19.854l104.697-104.697c5.483-5.483 14.371-5.483 19.854 0 5.483 5.483 5.483 14.371 0 19.854l-104.697 104.697c-5.483 5.482-14.371 5.482-19.854 0z" fill="url(#SVGID_17_)"/><g><circle cx="428.643" cy="235.072" fill="url(#SVGID_18_)" r="73.255"/><path d="m470.127 295.438-50.909-50.942c-17.153-17.153-40.696-24.009-62.967-20.592-3.417 22.271 3.438 45.813 20.592 62.967 25.382 25.382 64.746 28.224 93.284 8.567z" fill="url(#SVGID_19_)"/><circle cx="367.419" cy="296.295" fill="url(#SVGID_20_)" r="73.255"/><path d="m408.903 356.662-50.909-50.942c-17.153-17.153-40.696-24.009-62.967-20.592-3.417 22.271 3.438 45.813 20.592 62.967 25.383 25.382 64.747 28.224 93.284 8.567z" fill="url(#SVGID_21_)"/><circle cx="306.195" cy="357.519" fill="url(#SVGID_22_)" r="73.255"/></g><path d="m263.654 383.145-17.017 17.017c2.301 3.206 4.878 6.275 7.759 9.157 19.882 19.882 48.345 25.931 73.464 18.178l-44.352-44.352c-5.483-5.483-14.372-5.483-19.854 0z" fill="url(#SVGID_23_)"/><path d="m175.842 490.811c-5.483-5.483-5.483-14.371 0-19.854l87.812-87.812c5.483-5.483 14.371-5.483 19.854 0 5.483 5.483 5.483 14.371 0 19.854l-87.812 87.812c-5.483 5.483-14.372 5.483-19.854 0z" fill="url(#SVGID_24_)"/></g></g></svg>